<svg width="203" height="32" viewBox="0 0 203 32" fill="none" xmlns="http://www.w3.org/2000/svg">
<path d="M27.9645 5.82363C27.9645 4.43924 27.9553 3.11484 27.9738 1.79506C27.9784 1.4951 28.0247 1.17208 28.1451 0.899816C28.432 0.230694 29.1031 -0.0738725 29.8251 0.0691812C30.5657 0.21685 31.0748 0.779836 31.1165 1.4951C31.1211 1.56894 31.1165 1.64277 31.1165 1.71661C31.1165 10.8767 31.1165 20.0367 31.1118 29.1968C31.1118 29.8244 31.0424 30.452 30.487 30.8673C29.9686 31.2595 29.3808 31.2503 28.8069 30.9873C28.2006 30.7104 27.9692 30.1843 27.9645 29.5521C27.9553 28.14 27.9599 26.7233 27.9599 25.3112C27.9229 25.2928 27.8859 25.2743 27.8535 25.2605C27.6406 25.4866 27.423 25.7081 27.2147 25.9342C24.8265 28.5553 21.9292 30.3043 18.407 30.8673C13.649 31.6287 9.3215 30.6412 5.57252 27.494C2.70294 25.0667 0.856221 22.0256 0.249905 18.3339C-0.671139 12.7594 0.958044 7.98328 5.1282 4.12083C7.41461 2.00271 10.1083 0.669084 13.2186 0.262996C17.9164 -0.355365 22.1513 0.733689 25.8031 3.80704C26.5298 4.41617 27.2009 5.10375 27.9645 5.82363ZM15.6438 3.30404C8.81238 3.29481 3.3 8.62933 3.2352 15.5236C3.1704 22.3625 8.65038 27.9324 15.6531 27.937C22.5771 27.9416 27.9136 22.2702 27.9553 15.6667C27.9969 8.82315 22.466 3.30404 15.6438 3.30404Z" fill="#14262C"/>
<path d="M163.275 5.90671C163.279 5.76365 163.293 5.62522 163.293 5.48216C163.293 4.19929 163.293 2.91642 163.293 1.63355C163.293 0.733699 163.835 0.106108 164.668 0.0368889C165.529 -0.0369453 166.214 0.479894 166.39 1.34745C166.431 1.54588 166.441 1.75815 166.441 1.96119C166.445 11.0613 166.441 20.1613 166.445 29.2614C166.445 29.9997 166.26 30.6458 165.552 31.0057C164.478 31.5502 163.316 30.8027 163.293 29.5706C163.266 28.2462 163.233 26.9218 163.205 25.5974C163.205 25.542 163.191 25.4912 163.187 25.4174C156.036 33.5715 145.419 31.8594 140.383 27.111C134.005 21.0981 133.82 11.8134 138.758 5.86979C141.92 2.06733 145.992 0.0368889 151 0.0876499C155.967 0.138411 160.003 2.17347 163.168 5.98054C163.205 5.95285 163.238 5.92978 163.275 5.90671ZM151.074 3.30405C144.095 3.25329 138.666 8.66626 138.518 15.3483C138.36 22.2656 143.924 27.9047 150.991 27.9416C157.744 27.9785 163.33 22.2518 163.266 15.4775C163.205 8.84162 157.712 3.30405 151.074 3.30405Z" fill="#14262C"/>
<path d="M175.197 5.84215C176.327 4.90538 177.34 4.00091 178.419 3.17951C180.566 1.54593 182.955 0.461487 185.662 0.115389C188.541 -0.249167 191.276 0.281516 193.905 1.41672C198.932 3.58098 201.778 7.47112 202.847 12.7364C202.954 13.2671 202.991 13.8162 202.991 14.3562C203 19.3861 203 24.4161 202.995 29.446C202.995 30.7381 201.912 31.4857 200.732 31.0196C200.283 30.8396 200.019 30.5028 199.904 30.0552C199.839 29.8152 199.811 29.5614 199.811 29.3122C199.793 25.4036 199.779 21.4996 199.765 17.591C199.76 16.3543 199.834 15.113 199.737 13.8855C199.547 11.592 198.617 9.57078 197.154 7.80799C195.257 5.51913 192.864 4.01476 189.911 3.47023C186.866 2.90724 184.024 3.52099 181.427 5.14073C178.22 7.14348 176.211 10.023 175.443 13.7286C175.295 14.4438 175.216 15.1868 175.211 15.9159C175.188 19.9122 175.202 23.9085 175.197 27.9047C175.197 28.4354 175.179 28.9661 175.151 29.4922C175.105 30.3736 174.628 30.9919 173.934 31.1165C173.189 31.2457 172.43 30.872 172.161 30.1844C172.05 29.9075 172.013 29.5845 172.013 29.2799C172.004 20.1798 172.008 11.0798 172.008 1.9797C172.008 1.77666 172.027 1.569 172.059 1.36596C172.175 0.567624 172.712 0.0877014 173.494 0.0784721C174.457 0.0646282 175.026 0.461487 175.147 1.31519C175.221 1.85049 175.197 2.39963 175.202 2.94416C175.202 3.88093 175.197 4.8177 175.197 5.84215Z" fill="#14262C"/>
<path d="M83.5604 8.837C81.3851 8.837 79.2098 8.837 77.0298 8.837C76.3541 8.837 76.2754 8.90622 76.2847 9.56149C76.3217 11.9934 76.3078 14.4253 76.4328 16.848C76.567 19.3953 77.5899 21.6288 79.2283 23.5762C81.1167 25.8235 83.5003 27.2679 86.4069 27.7616C90.1466 28.3984 93.5485 27.554 96.506 25.182C99.1627 23.0501 100.63 20.2259 100.94 16.848C101.056 15.6067 100.972 14.3469 100.977 13.0963C100.982 12.2703 100.958 11.4443 100.982 10.6182C101.023 9.31692 102.356 8.61549 103.476 9.29385C103.87 9.53381 104.12 9.8799 104.12 10.3368C104.115 12.9856 104.272 15.639 103.958 18.2832C103.652 20.8489 102.708 23.147 101.074 25.1405C98.723 28.0016 95.7701 29.9951 92.1137 30.7796C87.115 31.8548 82.6255 30.7104 78.7238 27.4248C76.0625 25.182 74.313 22.3394 73.5493 18.9431C73.3133 17.8863 73.1883 16.7926 73.1466 15.7128C73.0726 13.77 73.1004 11.8227 73.0865 9.87529C73.0818 8.85084 73.068 8.837 72.0497 8.837C71.6933 8.837 71.3369 8.84623 70.9852 8.83238C70.1197 8.80469 69.4902 8.20479 69.4439 7.37416C69.393 6.42354 69.879 5.79595 70.8001 5.68059C71.2212 5.62982 71.6517 5.62521 72.0775 5.6529C72.9291 5.70366 73.1004 5.54676 73.0865 4.69767C73.0726 3.6686 73.0726 2.63492 73.0865 1.60586C73.0957 0.872133 73.5586 0.244542 74.1926 0.0599567C74.8545 -0.133858 75.6922 0.14302 76.0162 0.733694C76.1736 1.01519 76.2523 1.37051 76.2615 1.69815C76.2893 2.75952 76.2708 3.81627 76.2754 4.87764C76.2754 5.52369 76.405 5.6529 77.053 5.6529C81.4221 5.6529 85.7867 5.6529 90.1559 5.6529C91.2713 5.6529 91.9332 6.28049 91.91 7.30494C91.8869 8.23709 91.2435 8.83238 90.216 8.83238C88.0037 8.84161 85.7821 8.837 83.5604 8.837Z" fill="#14262C"/>
<path d="M39.8455 6.04059C40.2297 5.67604 40.5537 5.36686 40.8823 5.05767C42.1134 3.89017 43.377 2.77804 44.8812 1.96125C48.7644 -0.143022 52.8096 -0.475276 57.0029 0.830666C59.2152 1.51825 61.1638 2.67191 62.867 4.25473C65.3941 6.60819 66.9214 9.48773 67.4954 12.8749C67.5602 13.2625 67.5879 13.664 67.574 14.0608C67.5509 14.9884 66.9955 15.5698 66.1531 15.6067C65.2321 15.6483 64.5425 15.0899 64.436 14.1854C64.2139 12.3165 63.6723 10.5537 62.6124 8.98935C60.3538 5.66219 57.2898 3.60868 53.1984 3.30873C49.6577 3.05031 46.64 4.28703 44.0435 6.64972C42.3634 8.17717 41.1276 9.99072 40.4287 12.1504C40.026 13.3917 39.8224 14.6607 39.8224 15.9667C39.827 20.2583 39.827 24.5499 39.8178 28.8415C39.8178 29.2614 39.79 29.7045 39.6604 30.1013C39.4105 30.8627 38.7301 31.2319 37.9572 31.1165C37.2027 31.0012 36.652 30.3874 36.5918 29.5983C36.5872 29.5245 36.5872 29.4506 36.5872 29.3768C36.5872 20.1891 36.5872 11.0013 36.5872 1.81358C36.5872 0.46611 37.6748 -0.290691 38.8967 0.189232C39.6048 0.46611 39.7715 1.05217 39.7807 1.72129C39.7992 3.00416 39.8131 4.28703 39.827 5.56528C39.8224 5.69911 39.8363 5.82832 39.8455 6.04059Z" fill="#14262C"/>
<path d="M118.972 0.0692139C121.157 0.0969017 123.119 0.392238 124.924 1.40284C126.359 2.20579 127.405 3.38252 128.238 4.7623C128.613 5.38066 128.414 6.0544 127.803 6.45126C127.136 6.88503 126.535 6.78813 126.044 6.20207C124.702 4.60079 123.128 3.35945 120.976 3.07334C118.842 2.79185 116.769 2.89337 114.834 3.99627C112.15 5.52833 111.636 8.78165 113.788 10.9921C114.686 11.915 115.848 12.4503 117.051 12.8841C119.81 13.8808 122.615 14.7576 125.308 15.9066C127.604 16.8896 129.316 18.5785 129.751 21.1858C130.159 23.6085 129.478 25.7543 127.868 27.6094C126.021 29.7367 123.619 30.7519 120.87 31.0519C117.676 31.398 114.663 30.8765 111.909 29.1599C110.516 28.2923 109.433 27.1341 108.771 25.6158C108.48 24.9467 108.604 24.2499 109.063 23.8715C109.609 23.4193 110.396 23.3777 110.997 23.8023C111.22 23.9592 111.451 24.1576 111.585 24.3884C112.992 26.7926 115.186 27.8816 117.87 28.1908C120.06 28.44 122.142 28.1585 124.045 26.9818C125.628 26.0035 126.65 24.6237 126.766 22.7317C126.85 21.3058 126.225 20.129 125.095 19.2476C123.753 18.2001 122.175 17.6048 120.592 17.0372C118.486 16.2804 116.334 15.639 114.26 14.8038C112.205 13.9731 110.525 12.598 109.72 10.466C108.679 7.72028 109.225 5.22376 111.243 3.08719C113.048 1.18134 115.362 0.364551 117.926 0.133819C118.324 0.0876724 118.727 0.0784431 118.972 0.0692139Z" fill="#14262C"/>
<path d="M104.619 2.12734C104.615 3.3133 103.777 4.1624 102.592 4.18086C101.477 4.19931 100.491 3.22101 100.491 2.10888C100.491 0.927536 101.417 0.0230673 102.606 0.0322966C103.819 0.0415258 104.629 0.886004 104.619 2.12734Z" fill="#14262C"/>
</svg>
