<svg width="253" height="259" viewBox="0 0 253 259" fill="none" xmlns="http://www.w3.org/2000/svg">
<g clip-path="url(#clip0_11_39)">
<path d="M128.95 103.14C128.95 68.57 128.95 34.36 128.95 0.0100098C163.3 0.0100098 197.56 0.0100098 231.93 0.0100098C231.93 34.37 231.93 68.64 231.93 103.14C197.59 103.14 163.36 103.14 128.95 103.14ZM182.45 46.21C197.72 62.95 212.93 79.62 228.51 96.7C228.51 92.59 228.56 89.13 228.47 85.67C228.45 85.04 228.02 84.3 227.57 83.8C219.59 75.01 211.57 66.25 203.56 57.48C200.3 53.9 197.06 50.3 193.67 46.55C194.28 46.04 194.74 45.68 195.18 45.29C205.69 35.8 216.2 26.31 226.7 16.81C227.34 16.23 228.34 15.56 228.38 14.88C228.57 12 228.46 9.10001 228.46 5.75001C212.9 19.45 197.73 32.78 182.45 46.21ZM158.99 99.46C158.99 67.36 158.99 35.47 158.99 3.67001C156.68 3.67001 154.58 3.67001 152.54 3.67001C152.54 35.71 152.54 67.55 152.54 99.46C154.76 99.46 156.81 99.46 158.99 99.46ZM142.28 3.53001C142.28 35.61 142.28 67.5 142.28 99.39C144.52 99.39 146.61 99.39 148.65 99.39C148.65 67.36 148.65 35.48 148.65 3.53001C146.48 3.53001 144.5 3.53001 142.28 3.53001ZM138.36 99.47C138.36 67.36 138.36 35.49 138.36 3.63001C136.29 3.63001 134.41 3.63001 132.56 3.63001C132.56 35.68 132.56 67.56 132.56 99.47C134.56 99.47 136.39 99.47 138.36 99.47ZM162.91 58.5C183.88 40.06 204.46 21.97 225.5 3.47001C221.62 3.47001 218.46 3.41001 215.29 3.51001C214.57 3.53001 213.73 3.96001 213.17 4.45001C196.74 18.82 180.34 33.23 163.95 47.65C163.49 48.05 162.96 48.68 162.95 49.22C162.86 52.14 162.91 55.06 162.91 58.5ZM173.5 54.12C173.67 54.44 173.74 54.66 173.88 54.81C187.4 69.43 200.92 84.05 214.44 98.66C214.73 98.97 215.09 99.45 215.42 99.46C218.83 99.52 222.23 99.5 226.09 99.5C210.38 82.28 195.05 65.48 179.68 48.64C177.45 50.61 175.48 52.37 173.5 54.12ZM198.9 46.88C208.77 57.69 218.46 68.31 228.52 79.34C228.52 75.73 228.62 72.71 228.47 69.72C228.42 68.73 227.94 67.59 227.3 66.83C225.21 64.35 222.95 62.02 220.76 59.63C216.84 55.33 212.93 51.03 208.94 46.65C209.85 45.8 210.65 45.04 211.46 44.31C216.71 39.57 221.97 34.84 227.21 30.08C227.72 29.61 228.42 28.98 228.45 28.4C228.58 25.8 228.51 23.2 228.51 20.12C218.4 29.25 208.69 38.03 198.9 46.88ZM210.18 99.53C196.71 84.96 183.68 70.86 170.57 56.67C168.29 58.68 166.27 60.46 164.32 62.17C164.41 62.45 164.41 62.54 164.45 62.58C175.43 74.61 186.41 86.64 197.41 98.65C197.77 99.04 198.36 99.47 198.84 99.48C202.43 99.56 206.02 99.53 210.18 99.53ZM162.9 43.66C178.31 30.14 193.27 17.01 208.71 3.47001C204.85 3.47001 201.75 3.33001 198.67 3.54001C197.4 3.62001 195.93 4.14001 194.97 4.96001C184.6 13.9 174.3 22.93 164.03 31.98C163.45 32.49 162.98 33.42 162.94 34.17C162.83 37.11 162.9 40.06 162.9 43.66ZM193.22 99.53C183.01 88.38 173.17 77.62 162.92 66.42C162.92 70.77 162.89 74.5 162.96 78.23C162.97 78.73 163.38 79.3 163.75 79.71C169.38 85.94 175.01 92.17 180.7 98.35C181.23 98.93 182.13 99.45 182.88 99.48C186.11 99.6 189.35 99.53 193.22 99.53ZM191.05 3.47001C187.53 3.47001 184.69 3.36001 181.87 3.52001C180.73 3.59001 179.39 3.99001 178.54 4.71001C173.62 8.92001 168.81 13.26 163.98 17.58C163.56 17.95 163 18.47 162.98 18.93C162.89 21.81 162.93 24.7 162.93 28.06C172.42 19.76 181.48 11.84 191.05 3.47001ZM228.38 62.53C228.38 52.79 228.38 43.57 228.38 33.99C223.51 38.39 218.89 42.56 214.12 46.87C218.84 52.05 223.44 57.1 228.38 62.53ZM163 99.38C167.58 99.38 171.95 99.38 176.66 99.38C172.05 94.34 167.68 89.55 163 84.43C163 89.71 163 94.48 163 99.38ZM163.08 3.56001C163.08 6.88001 163.08 9.97001 163.08 13.46C166.86 10.09 170.33 6.98001 174.16 3.56001C170.09 3.56001 166.66 3.56001 163.08 3.56001Z" fill="#14262C"/>
<path d="M102.94 103.01C68.59 103.01 34.38 103.01 0 103.01C0 68.64 0 34.38 0 0C34.34 0 68.55 0 102.94 0C102.94 34.26 102.94 68.52 102.94 103.01ZM51.45 26.71C52.13 28.06 52.64 29.04 53.13 30.02C64.37 52.52 75.61 75.02 86.88 97.5C87.27 98.27 87.98 99.39 88.61 99.43C91.72 99.63 94.84 99.52 98.3 99.52C82.62 68.17 67.13 37.2 51.46 5.85C35.75 37.27 20.25 68.27 4.62 99.53C7.68 99.53 10.33 99.44 12.98 99.56C14.52 99.63 15.29 99.11 15.99 97.7C25.08 79.39 34.24 61.11 43.39 42.83C46.01 37.58 48.63 32.34 51.45 26.71ZM19.12 99.53C21.77 99.53 24.06 99.4 26.32 99.57C28.05 99.7 28.9 99.07 29.66 97.54C36.41 83.88 43.24 70.27 50.05 56.64C50.45 55.83 50.88 55.03 51.44 53.96C52.86 56.72 54.09 59.07 55.28 61.44C61.34 73.46 67.38 85.49 73.47 97.5C73.86 98.27 74.58 99.38 75.22 99.43C77.95 99.64 80.71 99.52 83.75 99.52C72.92 77.87 62.28 56.6 51.43 34.91C40.57 56.64 29.91 77.94 19.12 99.53ZM48.51 3.47C44.84 3.47 41.61 3.57 38.39 3.43C36.72 3.36 35.96 4 35.24 5.44C27.07 21.9 18.83 38.32 10.61 54.76C8.24 59.5 4.97 64.02 3.8 69.04C2.61 74.15 3.48 79.74 3.46 85.13C3.45 87.59 3.46 90.05 3.46 92.51C3.62 92.54 3.78 92.57 3.94 92.61C18.72 63.04 33.5 33.48 48.51 3.47ZM99.19 93.13C99.31 92.05 99.4 91.64 99.4 91.23C99.41 84.96 99.44 78.69 99.37 72.42C99.36 71.44 99.03 70.39 98.6 69.49C96.48 65.12 94.28 60.79 92.1 56.45C83.58 39.41 75.06 22.36 66.49 5.34C66.12 4.6 65.3 3.59 64.65 3.55C61.36 3.37 58.06 3.47 54.36 3.47C69.31 33.37 84.11 62.96 99.19 93.13ZM69.69 3.47C79.56 23.21 89.23 42.56 99.17 62.43C99.31 61.51 99.4 61.17 99.4 60.83C99.41 53.68 99.42 46.53 99.39 39.38C99.39 38.74 99.26 38.04 98.97 37.47C93.54 26.53 88.09 15.61 82.58 4.73C82.29 4.16 81.42 3.55 80.79 3.53C77.26 3.41 73.73 3.47 69.69 3.47ZM3.47 59.92C3.62 59.94 3.76 59.97 3.91 59.99C13.27 41.25 22.64 22.52 32.16 3.47C28.29 3.47 24.9 3.54 21.52 3.43C20.17 3.39 19.58 3.96 19.03 5.07C14.07 15.09 9.05 25.08 4.06 35.09C3.81 35.6 3.5 36.18 3.5 36.73C3.46 44.46 3.47 52.19 3.47 59.92ZM51.48 62.09C45.14 74.72 38.98 87.01 32.7 99.53C33.61 99.53 34.12 99.54 34.63 99.53C37.13 99.49 40.15 100.28 41.98 99.15C43.8 98.03 44.45 94.99 45.58 92.77C47.5 88.99 49.39 85.19 51.47 81.06C54.64 87.43 57.63 93.43 60.62 99.42C63.71 99.42 66.84 99.42 70.29 99.42C64.01 86.94 57.84 74.7 51.48 62.09ZM99.25 3.57C94.86 3.57 90.69 3.57 86.15 3.57C90.48 12.25 94.7 20.69 98.92 29.13C99.03 29.1 99.14 29.07 99.25 29.05C99.25 20.62 99.25 12.19 99.25 3.57ZM3.53 27.14C3.66 27.17 3.78 27.19 3.91 27.22C7.8 19.43 11.69 11.64 15.69 3.63C11.43 3.63 7.52 3.63 3.53 3.63C3.53 11.58 3.53 19.36 3.53 27.14ZM51.46 89.25C49.68 92.8 48.06 96.05 46.39 99.39C49.87 99.39 53.07 99.39 56.52 99.39C54.82 95.97 53.23 92.78 51.46 89.25Z" fill="#14262C"/>
<path d="M102.18 131.64C102.18 132.84 102.18 133.85 102.18 135.14C69.29 135.14 36.49 135.14 3.57 135.14C3.57 167.2 3.57 198.99 3.57 230.96C35.12 230.96 66.66 230.96 98.37 230.96C98.37 215.14 98.37 199.31 98.37 183.21C75.79 183.21 53.26 183.21 30.61 183.21C30.61 181.88 30.61 180.81 30.61 179.61C54.46 179.61 78.19 179.61 102.08 179.61C102.08 197.97 102.08 216.23 102.08 234.66C68.08 234.66 34.17 234.66 0.0899963 234.66C0.0899963 200.38 0.0899963 166.09 0.0899963 131.64C34.05 131.64 68.03 131.64 102.18 131.64Z" fill="#14262C"/>
<path d="M13.65 220.86C38.52 220.86 63.23 220.86 88.14 220.86C88.14 211.64 88.14 202.48 88.14 193.12C69.01 193.12 49.93 193.12 30.67 193.12C30.67 191.87 30.67 190.81 30.67 189.6C51 189.6 71.4 189.6 91.92 189.6C91.92 201.15 91.92 212.63 91.92 224.3C64.64 224.3 37.38 224.3 9.95 224.3C9.95 196.86 9.95 169.38 9.95 141.76C40.64 141.76 71.31 141.76 102.13 141.76C102.13 142.8 102.13 143.85 102.13 145.09C72.68 145.09 43.26 145.09 13.66 145.09C13.65 170.38 13.65 195.5 13.65 220.86Z" fill="#14262C"/>
<path d="M75.97 202.99C60.91 202.99 45.88 202.99 30.66 202.99C30.66 201.74 30.66 200.67 30.66 199.42C46.86 199.42 63.12 199.42 79.56 199.42C79.56 203.91 79.56 208.44 79.56 213.13C59.71 213.13 39.84 213.13 19.82 213.13C19.82 192.61 19.82 172.19 19.82 151.59C47.27 151.59 74.66 151.59 102.16 151.59C102.16 152.64 102.16 153.65 102.16 154.91C75.96 154.91 49.81 154.91 23.51 154.91C23.51 173.28 23.51 191.39 23.51 209.63C40.99 209.63 58.38 209.63 75.96 209.63C75.97 207.5 75.97 205.34 75.97 202.99Z" fill="#14262C"/>
<path d="M102.17 160.75C102.17 161.92 102.17 162.87 102.17 164C78.37 164 54.6 164 30.65 164C30.65 163.01 30.65 161.96 30.65 160.75C54.41 160.75 78.18 160.75 102.17 160.75Z" fill="#14262C"/>
<path d="M30.57 173.75C30.57 172.56 30.57 171.54 30.57 170.35C54.42 170.35 78.19 170.35 102.09 170.35C102.09 171.51 102.09 172.56 102.09 173.75C78.24 173.75 54.53 173.75 30.57 173.75Z" fill="#14262C"/>
<path d="M144.7 234.14C144.79 233.17 144.85 232.46 144.92 231.64C146.58 231.64 148.18 231.64 150.04 231.64C150.07 232.38 150.11 233.14 150.15 234C149.37 234.11 148.74 234.19 148.02 234.29C147.96 234.56 147.85 234.84 147.85 235.12C147.84 239.69 147.84 244.27 147.83 248.84C147.82 257.38 140.57 261.52 133.05 257.29C131.1 256.19 131.05 255.81 132.67 254.06C139.46 258 146.02 255.93 144.53 246.97C142.49 250.06 139.66 250.77 136.69 249.96C135.04 249.51 133.29 248.38 132.21 247.05C129.05 243.18 129.65 236.41 133.12 233.28C136.28 230.43 140.86 230.69 144.7 234.14ZM139.16 234.07C135.75 234.03 133.36 236.75 133.34 240.7C133.31 244.54 135.79 247.46 139.08 247.46C142.31 247.47 144.68 244.72 144.75 240.9C144.83 236.92 142.52 234.11 139.16 234.07Z" fill="#14262C"/>
<path d="M213.71 234.27C212.88 234.18 212.23 234.12 211.42 234.03C211.38 233.27 211.34 232.57 211.28 231.69C213.07 231.69 214.73 231.69 216.55 231.69C216.6 232.42 216.65 233.19 216.72 234.26C218.95 231.74 221.59 230.85 224.71 231.49C224.93 231.53 225.15 231.53 225.37 231.59C229.84 232.75 232.38 238.34 230.91 243.77C229.59 248.65 225.44 251.28 220.84 249.97C219.56 249.6 218.44 248.64 217.15 247.89C217.15 250.35 217.15 252.98 217.15 255.71C217.89 255.78 218.61 255.85 219.57 255.94C219.61 256.58 219.65 257.27 219.7 258.14C216.86 258.14 214.19 258.14 211.37 258.14C211.32 257.46 211.28 256.83 211.23 256.05C212.08 255.91 212.84 255.78 213.71 255.64C213.71 248.53 213.71 241.48 213.71 234.27ZM228.04 240.86C228.04 240.35 228.1 239.83 228.03 239.32C227.71 236.86 225.89 234.64 223.83 234.17C221.46 233.63 218.99 234.59 217.83 236.79C217.24 237.91 216.93 239.28 216.84 240.56C216.56 244.44 218.97 247.38 222.3 247.47C225.71 247.55 228.05 244.87 228.04 240.86Z" fill="#14262C"/>
<path d="M139.64 195.48C135.78 198.26 135.78 198.26 136.03 202.52C136.69 202.63 137.38 202.75 138.11 202.88C138.78 204.72 138.21 205.46 136.24 205.34C134.34 205.23 132.44 205.32 130.35 205.32C130.29 204.43 130.24 203.74 130.18 202.93C131.03 202.81 131.74 202.71 132.62 202.59C132.62 195.52 132.62 188.43 132.62 181.22C131.86 181.12 131.16 181.03 130.33 180.93C130.33 180.18 130.33 179.48 130.33 178.6C132.1 178.6 133.83 178.6 135.85 178.6C135.85 184.03 135.85 189.5 135.85 195.56C138.18 193.44 140.05 191.73 141.61 190.31C141.24 189.1 140.95 188.16 140.55 186.84C143.28 186.84 145.56 186.72 147.81 186.93C148.36 186.98 148.81 188.14 149.12 189.11C145.38 188.86 143.93 191.71 141.53 193.52C144.68 196.62 146.02 201.11 150.44 203.4C150.44 203.62 150.44 204.33 150.44 205.1C148.24 205.71 146.62 205.24 145.32 203.26C143.58 200.62 141.6 198.15 139.64 195.48Z" fill="#14262C"/>
<path d="M143.34 149.8C142.81 145.03 138.88 143.29 134.4 145.69C132.76 146.57 131.89 146.5 131.25 144.77C132.71 141.95 139.37 141.44 142.46 142.57C145.23 143.58 146.52 145.89 146.56 149.92C146.58 152.5 146.56 155.07 146.56 157.79C147.91 158.1 149.81 158.05 148.79 160.34C144.85 161.23 144.07 160.89 143.41 157.82C140.78 160.33 137.83 161.65 134.21 160.66C131.83 160.01 130.42 158.43 130.22 156.21C130 153.89 131.08 151.79 133.45 151C135.5 150.31 137.73 150.11 139.9 149.81C140.97 149.68 142.08 149.8 143.34 149.8ZM143.13 151.98C140.64 152.22 138.08 152.29 135.62 152.8C134.82 152.97 133.8 154.26 133.74 155.1C133.68 155.94 134.48 157.25 135.27 157.67C137.22 158.72 139.25 158.21 141.1 157.08C142.79 156.05 143.94 154.74 143.13 151.98Z" fill="#14262C"/>
<path d="M229.7 158.25C229.7 158.98 229.7 159.68 229.7 160.38C225.29 161.19 224.67 160.91 224.39 158.2C222.57 159.05 220.71 159.93 218.84 160.79C218.64 160.88 218.42 160.92 218.2 160.95C214.89 161.46 211.79 159.72 211.19 157.03C210.45 153.74 211.94 151.35 215.74 150.48C218.37 149.88 221.12 149.83 223.95 149.52C224.33 147.97 223.84 146.46 222.42 145.64C219.32 143.85 216.32 144.78 213.56 146.53C211.57 144.78 211.62 144.34 213.75 143.23C216.36 141.87 219.14 141.73 221.93 142.24C225.35 142.87 227.09 145.07 227.21 148.59C227.26 150.14 227.23 151.69 227.23 153.24C227.23 154.71 227.23 156.18 227.23 157.79C228.08 157.96 228.83 158.09 229.7 158.25ZM223.98 151.97C221.4 152.23 218.79 152.32 216.27 152.85C215.5 153.01 214.51 154.37 214.47 155.21C214.44 156.05 215.28 157.31 216.08 157.73C219.72 159.62 224.24 156.55 223.98 151.97Z" fill="#14262C"/>
<path d="M213.5 202.61C214.47 202.7 215.18 202.76 215.99 202.84C215.99 203.63 215.99 204.34 215.99 205.02C215.81 205.12 215.69 205.25 215.56 205.26C210.36 205.64 210.36 205.64 210.36 200.53C210.36 198.24 210.39 195.96 210.35 193.67C210.3 190.93 208.88 189.45 206.35 189.43C203.67 189.41 201.52 191.29 201.49 193.75C201.46 196.62 201.48 199.49 201.48 202.5C202.22 202.64 202.9 202.76 203.68 202.91C204.12 204.44 204.08 205.46 202 205.35C200.03 205.24 198.04 205.33 195.9 205.33C195.83 204.47 195.78 203.77 195.71 202.96C196.59 202.82 197.36 202.7 198.23 202.56C198.23 198.28 198.23 194.04 198.23 189.68C197.44 189.57 196.73 189.48 195.85 189.36C195.81 188.66 195.78 187.96 195.73 187.05C197.51 187.05 199.16 187.05 200.92 187.05C201.02 187.67 201.13 188.35 201.14 188.47C203.29 187.89 205.37 186.96 207.5 186.83C211.11 186.61 213.37 189.02 213.48 192.7C213.53 194.32 213.49 195.94 213.49 197.56C213.5 199.16 213.5 200.77 213.5 202.61Z" fill="#14262C"/>
<path d="M238.25 157.79C240.71 158.24 240.71 158.24 240.46 160.48C237.94 160.48 235.4 160.48 232.68 160.48C232.68 159.77 232.68 159.03 232.68 158.18C233.45 158.09 234.16 158 234.98 157.9C234.98 153.6 234.98 149.35 234.98 144.96C234.24 144.85 233.54 144.75 232.67 144.62C232.67 143.97 232.67 143.29 232.67 142.44C234.28 142.44 235.87 142.44 237.63 142.44C237.75 143.05 237.89 143.71 237.9 143.77C240.11 143.18 242.2 142.27 244.33 142.13C247.8 141.91 250.12 144.32 250.22 147.86C250.31 151.16 250.24 154.47 250.24 157.86C251.15 157.98 251.85 158.07 252.72 158.18C252.77 158.9 252.82 159.61 252.9 160.62C251.41 160.62 249.98 160.86 248.7 160.52C248.03 160.34 247.23 159.17 247.19 158.41C247.02 155.4 247.13 152.37 247.11 149.34C247.09 146.35 245.57 144.68 242.98 144.74C240.25 144.81 238.25 146.78 238.25 149.44C238.24 152.25 238.25 155.04 238.25 157.79Z" fill="#14262C"/>
<path d="M234.93 196.52C230.32 196.52 225.85 196.52 221.32 196.52C221.26 199.37 222.49 201.31 224.84 202.29C228.29 203.72 231.13 202.33 233.75 199.54C234.28 200.12 234.77 200.64 235.21 201.12C232.77 205.13 227.65 206.67 223.3 204.86C219.17 203.15 217.01 198.43 218.14 193.61C219.31 188.62 223.57 185.92 228.85 186.81C232.82 187.48 235.38 191.4 234.93 196.52ZM221.48 194.1C224.95 194.1 228.29 194.1 231.64 194.1C231.47 190.99 229.82 189.31 227 189.22C223.96 189.13 221.78 190.99 221.48 194.1Z" fill="#14262C"/>
<path d="M190.87 234.25C189.93 234.18 189.28 234.13 188.44 234.06C188.44 233.28 188.44 232.52 188.44 231.79C188.62 231.7 188.74 231.59 188.87 231.58C195.05 231.33 193.86 231.53 193.94 236.39C193.98 238.6 193.89 240.82 193.96 243.03C194.05 245.88 195.59 247.48 198.1 247.46C200.94 247.44 202.85 245.6 202.86 242.85C202.87 240.19 202.85 237.54 202.83 234.88C202.83 234.74 202.76 234.6 202.68 234.31C202.12 234.22 201.49 234.13 200.7 234.01C200.7 233.28 200.7 232.52 200.7 231.76C200.85 231.68 200.98 231.56 201.11 231.56C207.32 231.51 205.96 230.78 206.1 236.23C206.19 239.69 206.15 243.16 206.17 246.63C206.17 246.77 206.26 246.91 206.36 247.21C206.97 247.31 207.67 247.43 208.48 247.56C208.48 248.29 208.48 248.99 208.48 249.69C204.94 250.64 203.58 250.14 203.1 247.49C201.44 249.58 199.35 250.3 196.87 250.17C193.34 249.98 190.95 247.69 190.87 244.12C190.82 240.9 190.87 237.66 190.87 234.25Z" fill="#14262C"/>
<path d="M168.93 202.64C169.91 202.71 170.56 202.76 171.3 202.81C171.3 203.63 171.3 204.33 171.3 205.02C167.26 205.88 166.39 205.56 165.99 203.42C164.57 204.07 163.15 205.08 161.6 205.35C156.59 206.22 153.68 203.63 153.67 198.57C153.66 195.63 153.67 192.7 153.67 189.64C152.8 189.54 152.1 189.46 151.24 189.36C151.22 188.38 150.31 187.17 152.16 186.85C155.1 186.33 156.69 186.94 156.73 188.69C156.8 191.86 156.73 195.03 156.76 198.2C156.78 200.15 157.33 201.97 159.41 202.57C161.44 203.16 163.38 202.71 164.82 201.01C165.22 200.53 165.61 199.87 165.62 199.28C165.7 196.12 165.66 192.97 165.66 189.7C164.9 189.57 164.27 189.46 163.5 189.33C163.5 188.58 163.5 187.83 163.5 187.17C163.68 187.04 163.74 186.96 163.8 186.95C168.92 186.36 168.92 186.36 168.92 191.46C168.93 195.12 168.93 198.8 168.93 202.64Z" fill="#14262C"/>
<path d="M177.29 250.17C171.65 250.16 168.01 246.4 168.06 240.64C168.11 234.91 171.81 231.25 177.5 231.31C183.03 231.37 186.63 235.08 186.64 240.73C186.66 246.43 182.95 250.18 177.29 250.17ZM183.39 240.75C183.4 236.77 180.95 234.05 177.36 234.05C173.78 234.05 171.31 236.8 171.31 240.76C171.32 244.7 173.81 247.46 177.37 247.47C180.94 247.47 183.38 244.75 183.39 240.75Z" fill="#14262C"/>
<path d="M195.57 158.75C195.4 159.52 195.3 160 195.18 160.54C194.56 160.54 193.92 160.54 193.19 160.54C193.19 158.4 193.19 156.36 193.19 154.14C193.92 154.1 194.61 154.06 195.27 154.02C196.29 158.1 200.03 159.22 203.01 157.96C203.74 157.65 204.56 156.64 204.6 155.91C204.64 155.23 203.84 154.16 203.15 153.85C201.49 153.11 199.66 152.74 197.92 152.18C194.84 151.19 193.27 149.14 193.6 146.61C193.95 143.94 196.32 142 199.5 142.11C201.27 142.17 203.02 142.69 204.95 143.04C205.36 142.85 206.13 142.5 207.12 142.06C207.21 143 207.29 143.43 207.29 143.86C207.31 145.33 207.3 146.79 207.3 148.32C205.89 148.9 205.14 148.81 204.64 147.19C203.85 144.65 199.88 143.7 197.79 145.4C196.14 146.74 196.42 148.67 198.56 149.51C200.53 150.29 202.65 150.68 204.66 151.38C207.14 152.25 208.28 153.91 208.12 156.16C207.97 158.35 206.31 160.15 203.91 160.65C200.99 161.25 198.2 161.13 195.57 158.75Z" fill="#14262C"/>
<path d="M179.73 202.63C180.56 202.7 181.19 202.75 181.93 202.82C181.93 203.65 181.93 204.35 181.93 205.32C180.57 205.32 179.27 205.32 177.96 205.32C176.72 205.32 175.48 205.32 174.12 205.32C174.12 204.41 174.12 203.71 174.12 202.86C174.84 202.77 175.55 202.69 176.36 202.59C176.36 195.49 176.36 188.43 176.36 181.26C175.59 181.14 174.9 181.03 174.1 180.91C174.1 180.14 174.1 179.44 174.1 178.73C174.37 178.62 174.57 178.48 174.77 178.47C180.92 178.32 179.66 178.16 179.72 183.1C179.78 189.51 179.73 195.93 179.73 202.63Z" fill="#14262C"/>
<path d="M240.37 202.59C240.37 198.33 240.37 194.07 240.37 189.67C239.61 189.56 238.85 189.45 238.12 189.34C237.73 186.58 237.98 186.47 243.17 187.03C243.27 188.23 243.37 189.49 243.52 191.21C245.53 187.92 248.23 186.83 251.73 186.82C251.73 187.82 251.73 188.71 251.73 189.6C244.13 190.41 242.94 193.9 243.84 202.61C244.52 202.69 245.22 202.78 245.94 202.86C246.5 204.59 246.17 205.46 244.2 205.35C242.23 205.24 240.24 205.33 238.06 205.33C237.98 204.48 237.92 203.79 237.85 202.96C238.72 202.82 239.49 202.71 240.37 202.59Z" fill="#14262C"/>
<path d="M158.54 247.25C159.53 247.36 160.18 247.43 160.83 247.5C161.46 249.88 161.35 250.03 159 250.05C157.67 250.06 156.34 249.97 155.02 250.07C153.08 250.21 152.71 249.31 153.23 247.54C153.9 247.45 154.59 247.35 155.37 247.24C155.41 246.56 155.48 245.98 155.48 245.41C155.49 241.74 155.48 238.07 155.48 234.25C154.67 234.18 154.03 234.13 153.21 234.07C153.21 233.27 153.21 232.52 153.21 231.78C157.84 230.93 158.08 231.08 158.71 235.52C160.67 232.58 163.3 231.34 166.77 231.56C166.77 232.47 166.77 233.31 166.77 234.52C163.99 234.34 161.43 235.01 159.79 237.58C157.9 240.57 158.82 243.86 158.54 247.25Z" fill="#14262C"/>
<path d="M180.16 159.01C178.37 160.88 175.86 161.48 173.53 160.53C171.12 159.54 170.17 157.53 170.12 155.08C170.05 151.77 170.1 148.45 170.1 145C169.25 144.86 168.49 144.73 167.7 144.59C166.68 142.23 168.46 142.29 170.06 142.12C170.06 140.82 170.06 139.6 170.06 138.19C171.15 138.19 172.05 138.19 173.09 138.19C173.15 139.45 173.21 140.68 173.29 142.15C174.97 142.23 176.62 142.31 178.38 142.39C178.38 143.17 178.38 143.8 178.38 144.66C176.78 144.66 175.19 144.66 173.05 144.66C173.24 148.67 173.26 152.46 173.65 156.21C173.82 157.86 175.79 158.72 177.53 157.9C179.13 157.14 179.63 157.85 180.16 159.01Z" fill="#14262C"/>
<path d="M157.58 157.91C158.3 158 158.94 158.08 159.77 158.17C159.82 158.9 159.87 159.6 159.93 160.47C157.26 160.47 154.72 160.47 151.98 160.47C151.93 159.83 151.88 159.14 151.81 158.32C152.59 158.15 153.27 158.01 154.05 157.84C154.05 153.59 154.05 149.34 154.05 144.96C153.41 144.85 152.78 144.74 152 144.6C152 143.95 152 143.26 152 142.43C153.68 142.43 155.32 142.43 157.11 142.43C157.11 143.74 157.11 144.89 157.11 146.05C159.27 143.37 161.97 142.16 165.47 142.16C165.47 143.12 165.47 144.02 165.47 144.92C159.51 145.68 156.55 147.07 157.58 157.91Z" fill="#14262C"/>
<path d="M190.39 202.59C191.38 202.69 192.09 202.77 192.93 202.85C192.93 203.6 192.93 204.3 192.93 205.31C190.56 205.31 188.22 205.42 185.9 205.22C185.43 205.18 185.06 203.96 184.49 203.02C185.75 202.82 186.44 202.71 187.26 202.58C187.26 198.32 187.26 194.08 187.26 189.71C186.57 189.58 185.88 189.46 185.17 189.33C184.5 187.47 185.03 186.65 187.03 186.83C188.04 186.92 189.07 186.85 190.39 186.85C190.39 192.15 190.39 197.33 190.39 202.59Z" fill="#14262C"/>
<path d="M182.36 160.64C181.53 158.26 182.68 157.87 184.52 158.03C184.52 153.65 184.52 149.35 184.52 144.91C183.82 144.82 183.12 144.73 182.43 144.64C181.22 142.36 182.09 141.88 187.78 142.53C187.78 147.61 187.78 152.74 187.78 157.89C188.68 158 189.33 158.08 190.07 158.17C190.69 159.83 190.5 160.79 188.36 160.67C186.38 160.55 184.4 160.64 182.36 160.64Z" fill="#14262C"/>
<path d="M191.34 183.43C190.53 183.95 189.66 184.95 188.93 184.86C188.17 184.76 186.97 183.59 187 182.93C187.04 182.2 188.18 181.07 188.96 180.96C189.68 180.87 190.55 181.9 191.35 182.44C191.34 182.77 191.34 183.1 191.34 183.43Z" fill="#14262C"/>
<path d="M183.84 137.78C184.63 137.23 185.49 136.18 186.19 136.28C186.95 136.39 188.06 137.53 188.1 138.28C188.13 138.92 186.95 140.08 186.18 140.18C185.47 140.28 184.62 139.29 183.82 138.77C183.84 138.45 183.84 138.12 183.84 137.78Z" fill="#14262C"/>
</g>
<defs>
<clipPath id="clip0_11_39">
<rect width="252.91" height="258.96" fill="white"/>
</clipPath>
</defs>
</svg>
